<svg width="128" height="128" viewBox="0 0 128 128" fill="none" xmlns="http://www.w3.org/2000/svg">
  <defs>
    <linearGradient id="mainGradient" x1="0%" y1="0%" x2="100%" y2="100%">
      <stop offset="0%" style="stop-color:#FF6B6B;stop-opacity:1" />
      <stop offset="50%" style="stop-color:#E53E3E;stop-opacity:1" />
      <stop offset="100%" style="stop-color:#C53030;stop-opacity:1" />
    </linearGradient>
    <linearGradient id="bowGradient" x1="0%" y1="0%" x2="100%" y2="100%">
      <stop offset="0%" style="stop-color:#4A90E2;stop-opacity:1" />
      <stop offset="50%" style="stop-color:#2E5BBA;stop-opacity:1" />
      <stop offset="100%" style="stop-color:#1E3A8A;stop-opacity:1" />
    </linearGradient>
    <linearGradient id="sparkleGradient" x1="0%" y1="0%" x2="100%" y2="100%">
      <stop offset="0%" style="stop-color:#FFD700;stop-opacity:1" />
      <stop offset="100%" style="stop-color:#FFA500;stop-opacity:1" />
    </linearGradient>
  </defs>
  
  <!-- Main gift box -->
  <rect x="20" y="32" width="88" height="64" rx="8" fill="url(#mainGradient)" stroke="#C53030" stroke-width="2"/>
  
  <!-- Gift box interior -->
  <rect x="28" y="40" width="72" height="48" rx="4" fill="white"/>
  
  <!-- Bow -->
  <rect x="48" y="16" width="32" height="16" rx="8" fill="url(#bowGradient)"/>
  <rect x="52" y="12" width="24" height="4" rx="2" fill="#1E3A8A"/>
  
  <!-- Bow ribbon -->
  <rect x="60" y="20" width="8" height="8" rx="4" fill="url(#bowGradient)"/>
  
  <!-- Gift decoration -->
  <circle cx="64" cy="64" r="8" fill="url(#sparkleGradient)"/>
  <path d="M56 56l16 16 16-16" stroke="#FF6B6B" stroke-width="2" stroke-linecap="round" stroke-linejoin="round"/>
  
  <!-- Sparkles -->
  <circle cx="40" cy="48" r="2" fill="url(#sparkleGradient)"/>
  <circle cx="88" cy="72" r="2" fill="url(#sparkleGradient)"/>
  <circle cx="56" cy="88" r="2" fill="url(#sparkleGradient)"/>
  <circle cx="72" cy="40" r="2" fill="url(#sparkleGradient)"/>
  
  <!-- Additional decorations -->
  <rect x="32" y="52" width="8" height="2" rx="1" fill="#FFD700"/>
  <rect x="88" y="52" width="8" height="2" rx="1" fill="#FFD700"/>
  <rect x="32" y="68" width="8" height="2" rx="1" fill="#FFD700"/>
  <rect x="88" y="68" width="8" height="2" rx="1" fill="#FFD700"/>
  
  <!-- Gift tag -->
  <rect x="100" y="44" width="16" height="12" rx="2" fill="white" stroke="#4A90E2" stroke-width="1"/>
  <circle cx="108" cy="50" r="2" fill="#4A90E2"/>
  <path d="M108 52l0 4" stroke="#4A90E2" stroke-width="1" stroke-linecap="round"/>
</svg>
